<?xml version="1.0" encoding="UTF-8" standalone="no"?><svg xmlns="http://www.w3.org/2000/svg" xmlns:xlink="http://www.w3.org/1999/xlink" contentStyleType="text/css" height="752px" preserveAspectRatio="none" style="width:871px;height:752px;background:#FFFFFF;" version="1.1" viewBox="0 0 871 752" width="871px" zoomAndPan="magnify"><defs/><g><rect fill="none" height="26.2969" id="_title" style="stroke:none;stroke-width:1.0;" width="521" x="168" y="5"/><text fill="#000000" font-family="sans-serif" font-size="14" font-weight="bold" lengthAdjust="spacing" textLength="511" x="173" y="22.9951">Home Elderly Activity and Safety Monitoring System Architecture</text><!--MD5=[5f3663a652980926eb326aa6b2545b2b]
cluster Processing Modules--><g id="cluster_Processing Modules"><path d="M8.5,176.2969 L168.5,176.2969 A3.75,3.75 0 0 1 171,178.7969 L178,198.5938 L397.5,198.5938 A2.5,2.5 0 0 1 400,201.0938 L400,742.7969 A2.5,2.5 0 0 1 397.5,745.2969 L8.5,745.2969 A2.5,2.5 0 0 1 6,742.7969 L6,178.7969 A2.5,2.5 0 0 1 8.5,176.2969 " fill="none" style="stroke:#000000;stroke-width:1.5;"/><line style="stroke:#000000;stroke-width:1.5;" x1="6" x2="178" y1="198.5938" y2="198.5938"/><text fill="#000000" font-family="sans-serif" font-size="14" font-weight="bold" lengthAdjust="spacing" textLength="159" x="10" y="191.292">Processing Modules</text></g><!--MD5=[c6f92b72b527d66eb2a59ce05bd6e90f]
cluster Alert & Logging--><g id="cluster_Alert &amp; Logging"><path d="M426.5,635.2969 L551.5,635.2969 A3.75,3.75 0 0 1 554,637.7969 L561,657.5938 L861.5,657.5938 A2.5,2.5 0 0 1 864,660.0938 L864,742.7969 A2.5,2.5 0 0 1 861.5,745.2969 L426.5,745.2969 A2.5,2.5 0 0 1 424,742.7969 L424,637.7969 A2.5,2.5 0 0 1 426.5,635.2969 " fill="none" style="stroke:#000000;stroke-width:1.5;"/><line style="stroke:#000000;stroke-width:1.5;" x1="424" x2="561" y1="657.5938" y2="657.5938"/><text fill="#000000" font-family="sans-serif" font-size="14" font-weight="bold" lengthAdjust="spacing" textLength="124" x="428" y="650.292">Alert &amp; Logging</text></g><!--MD5=[77140a42179fe8241cde5d77dd05aadc]
cluster config--><g id="cluster_config"><path d="M506.5,176.2969 L556.5,176.2969 A3.75,3.75 0 0 1 559,178.7969 L566,198.5938 L571.5,198.5938 A2.5,2.5 0 0 1 574,201.0938 L574,266.7969 A2.5,2.5 0 0 1 571.5,269.2969 L506.5,269.2969 A2.5,2.5 0 0 1 504,266.7969 L504,178.7969 A2.5,2.5 0 0 1 506.5,176.2969 " fill="none" style="stroke:#000000;stroke-width:1.5;"/><line style="stroke:#000000;stroke-width:1.5;" x1="504" x2="566" y1="198.5938" y2="198.5938"/><text fill="#000000" font-family="sans-serif" font-size="14" font-weight="bold" lengthAdjust="spacing" textLength="49" x="508" y="191.292">config</text></g><!--MD5=[d64fe770dd88f4db7ba8a057861fb27c]
cluster YOLOv5\n(best--><g id="cluster_YOLOv5\n(best"><path d="M429.5,43.2969 L492.5,43.2969 A3.75,3.75 0 0 1 495,45.7969 L502,81.8906 L502.5,81.8906 A2.5,2.5 0 0 1 505,84.3906 L505,149.7969 A2.5,2.5 0 0 1 502.5,152.2969 L429.5,152.2969 A2.5,2.5 0 0 1 427,149.7969 L427,45.7969 A2.5,2.5 0 0 1 429.5,43.2969 " fill="none" style="stroke:#000000;stroke-width:1.5;"/><line style="stroke:#000000;stroke-width:1.5;" x1="427" x2="502" y1="81.8906" y2="81.8906"/><text fill="#000000" font-family="sans-serif" font-size="14" font-weight="bold" lengthAdjust="spacing" textLength="62" x="431" y="58.292">YOLOv5</text><text fill="#000000" font-family="sans-serif" font-size="14" font-weight="bold" lengthAdjust="spacing" textLength="41" x="441.5" y="74.5889">(best</text></g><!--MD5=[f2b8564b225ae6fadbe62647e0617e64]
cluster ResNet18\n(behavior_classifier--><g id="cluster_ResNet18\n(behavior_classifier"><path d="M635.5,43.2969 L789.5,43.2969 A3.75,3.75 0 0 1 792,45.7969 L799,81.8906 L799.5,81.8906 A2.5,2.5 0 0 1 802,84.3906 L802,149.7969 A2.5,2.5 0 0 1 799.5,152.2969 L635.5,152.2969 A2.5,2.5 0 0 1 633,149.7969 L633,45.7969 A2.5,2.5 0 0 1 635.5,43.2969 " fill="none" style="stroke:#000000;stroke-width:1.5;"/><line style="stroke:#000000;stroke-width:1.5;" x1="633" x2="799" y1="81.8906" y2="81.8906"/><text fill="#000000" font-family="sans-serif" font-size="14" font-weight="bold" lengthAdjust="spacing" textLength="76" x="675.5" y="58.292">ResNet18</text><text fill="#000000" font-family="sans-serif" font-size="14" font-weight="bold" lengthAdjust="spacing" textLength="153" x="637" y="74.5889">(behavior_classifier</text></g><!--MD5=[d71ee11ede0e83c966e8ef97d9465fe6]
class Stream--><g id="elem_Stream"><rect codeLine="13" fill="#F1F1F1" height="42.2969" id="Stream" rx="2.5" ry="2.5" style="stroke:#181818;stroke-width:0.5;" width="152" x="232" y="211.2969"/><text fill="#000000" font-family="sans-serif" font-size="14" lengthAdjust="spacing" textLength="146" x="235" y="229.292">Video Stream Reader</text><line style="stroke:#181818;stroke-width:0.5;" x1="233" x2="383" y1="237.5938" y2="237.5938"/><line style="stroke:#181818;stroke-width:0.5;" x1="233" x2="383" y1="245.5938" y2="245.5938"/></g><!--MD5=[91d939cc50f48c664a373220bb58b7c5]
class Detection--><g id="elem_Detection"><rect codeLine="14" fill="#F1F1F1" height="58.5938" id="Detection" rx="2.5" ry="2.5" style="stroke:#181818;stroke-width:0.5;" width="123" x="253.5" y="313.2969"/><text fill="#000000" font-family="sans-serif" font-size="14" lengthAdjust="spacing" textLength="117" x="256.5" y="331.292">Object Detection</text><text fill="#000000" font-family="sans-serif" font-size="14" lengthAdjust="spacing" textLength="64" x="283" y="347.5889">(YOLOv5)</text><line style="stroke:#181818;stroke-width:0.5;" x1="254.5" x2="375.5" y1="355.8906" y2="355.8906"/><line style="stroke:#181818;stroke-width:0.5;" x1="254.5" x2="375.5" y1="363.8906" y2="363.8906"/></g><!--MD5=[463c12544fc85af6f1e0c051447fcb90]
class Tracking--><g id="elem_Tracking"><rect codeLine="15" fill="#F1F1F1" height="58.5938" id="Tracking" rx="2.5" ry="2.5" style="stroke:#181818;stroke-width:0.5;" width="114" x="250" y="432.2969"/><text fill="#000000" font-family="sans-serif" font-size="14" lengthAdjust="spacing" textLength="108" x="253" y="450.292">Object Tracking</text><text fill="#000000" font-family="sans-serif" font-size="14" lengthAdjust="spacing" textLength="91" x="261.5" y="466.5889">(Deep SORT)</text><line style="stroke:#181818;stroke-width:0.5;" x1="251" x2="363" y1="474.8906" y2="474.8906"/><line style="stroke:#181818;stroke-width:0.5;" x1="251" x2="363" y1="482.8906" y2="482.8906"/></g><!--MD5=[9ec104ddfc62073059e345d4e82bb5a8]
class Behavior--><g id="elem_Behavior"><rect codeLine="16" fill="#F1F1F1" height="58.5938" id="Behavior" rx="2.5" ry="2.5" style="stroke:#181818;stroke-width:0.5;" width="153" x="230.5" y="551.2969"/><text fill="#000000" font-family="sans-serif" font-size="14" lengthAdjust="spacing" textLength="147" x="233.5" y="569.292">Behavior Recognition</text><text fill="#000000" font-family="sans-serif" font-size="14" lengthAdjust="spacing" textLength="138" x="238" y="585.5889">(ResNet18 + Rules)</text><line style="stroke:#181818;stroke-width:0.5;" x1="231.5" x2="382.5" y1="593.8906" y2="593.8906"/><line style="stroke:#181818;stroke-width:0.5;" x1="231.5" x2="382.5" y1="601.8906" y2="601.8906"/></g><!--MD5=[7175094804a2e58554fd0d6cc8dc3e60]
class EnvAdapt--><g id="elem_EnvAdapt"><rect codeLine="17" fill="#F1F1F1" height="58.5938" id="EnvAdapt" rx="2.5" ry="2.5" style="stroke:#181818;stroke-width:0.5;" width="167" x="21.5" y="670.2969"/><text fill="#000000" font-family="sans-serif" font-size="14" lengthAdjust="spacing" textLength="156" x="27" y="688.292">Environmental Adapter</text><text fill="#000000" font-family="sans-serif" font-size="14" lengthAdjust="spacing" textLength="161" x="24.5" y="704.5889">(Background Modeling)</text><line style="stroke:#181818;stroke-width:0.5;" x1="22.5" x2="187.5" y1="712.8906" y2="712.8906"/><line style="stroke:#181818;stroke-width:0.5;" x1="22.5" x2="187.5" y1="720.8906" y2="720.8906"/></g><!--MD5=[ad801415d4a054e52db0882645a380ef]
class Zone--><g id="elem_Zone"><rect codeLine="18" fill="#F1F1F1" height="58.5938" id="Zone" rx="2.5" ry="2.5" style="stroke:#181818;stroke-width:0.5;" width="160" x="224" y="670.2969"/><text fill="#000000" font-family="sans-serif" font-size="14" lengthAdjust="spacing" textLength="154" x="227" y="688.292">Danger Zone Checker</text><text fill="#000000" font-family="sans-serif" font-size="14" lengthAdjust="spacing" textLength="105" x="251.5" y="704.5889">(Polygon Logic)</text><line style="stroke:#181818;stroke-width:0.5;" x1="225" x2="383" y1="712.8906" y2="712.8906"/><line style="stroke:#181818;stroke-width:0.5;" x1="225" x2="383" y1="720.8906" y2="720.8906"/></g><!--MD5=[9754d6886bed941ce7b81f758977ae98]
class Snapshot--><g id="elem_Snapshot"><rect codeLine="22" fill="#F1F1F1" height="42.2969" id="Snapshot" rx="2.5" ry="2.5" style="stroke:#181818;stroke-width:0.5;" width="114" x="734" y="678.7969"/><text fill="#000000" font-family="sans-serif" font-size="14" lengthAdjust="spacing" textLength="108" x="737" y="696.792">Snapshot Saver</text><line style="stroke:#181818;stroke-width:0.5;" x1="735" x2="847" y1="705.0938" y2="705.0938"/><line style="stroke:#181818;stroke-width:0.5;" x1="735" x2="847" y1="713.0938" y2="713.0938"/></g><!--MD5=[248f897e4bb16c2722904b15df30346f]
class Logger--><g id="elem_Logger"><rect codeLine="23" fill="#F1F1F1" height="42.2969" id="Logger" rx="2.5" ry="2.5" style="stroke:#181818;stroke-width:0.5;" width="118" x="581" y="678.7969"/><text fill="#000000" font-family="sans-serif" font-size="14" lengthAdjust="spacing" textLength="112" x="584" y="696.792">Behavior Logger</text><line style="stroke:#181818;stroke-width:0.5;" x1="582" x2="698" y1="705.0938" y2="705.0938"/><line style="stroke:#181818;stroke-width:0.5;" x1="582" x2="698" y1="713.0938" y2="713.0938"/></g><!--MD5=[bc5b29fb3d887e13be4d600333f8a461]
class Notifier--><g id="elem_Notifier"><rect codeLine="24" fill="#F1F1F1" height="58.5938" id="Notifier" rx="2.5" ry="2.5" style="stroke:#181818;stroke-width:0.5;" width="106" x="440" y="670.2969"/><text fill="#000000" font-family="sans-serif" font-size="14" lengthAdjust="spacing" textLength="48" x="469" y="688.292">Notifier</text><text fill="#000000" font-family="sans-serif" font-size="14" lengthAdjust="spacing" textLength="100" x="443" y="704.5889">(Twilio / SMTP)</text><line style="stroke:#181818;stroke-width:0.5;" x1="441" x2="545" y1="712.8906" y2="712.8906"/><line style="stroke:#181818;stroke-width:0.5;" x1="441" x2="545" y1="720.8906" y2="720.8906"/></g><path d="M34.5,88.7969 L197.5,88.7969 A3.75,3.75 0 0 1 200,91.2969 L207,111.0938 L211.5,111.0938 A2.5,2.5 0 0 1 214,113.5938 L214,138.8906 A2.5,2.5 0 0 1 211.5,141.3906 L34.5,141.3906 A2.5,2.5 0 0 1 32,138.8906 L32,91.2969 A2.5,2.5 0 0 1 34.5,88.7969 " fill="#F1F1F1" style="stroke:#181818;stroke-width:0.5;"/><line style="stroke:#181818;stroke-width:0.5;" x1="32" x2="207" y1="111.0938" y2="111.0938"/><text fill="#000000" font-family="sans-serif" font-size="14" lengthAdjust="spacing" textLength="162" x="36" y="103.792">Configuration &amp; Models</text><!--MD5=[ead8a1a76ebed6a8cedb3a31c895a4c6]
class config.yaml--><g id="elem_config.yaml"><rect codeLine="28" fill="#F1F1F1" height="42.2969" id="config.yaml" rx="2.5" ry="2.5" style="stroke:#181818;stroke-width:0.5;" width="37" x="520.5" y="211.2969"/><text fill="#000000" font-family="sans-serif" font-size="14" lengthAdjust="spacing" textLength="31" x="523.5" y="229.292">yaml</text><line style="stroke:#181818;stroke-width:0.5;" x1="521.5" x2="556.5" y1="237.5938" y2="237.5938"/><line style="stroke:#181818;stroke-width:0.5;" x1="521.5" x2="556.5" y1="245.5938" y2="245.5938"/></g><!--MD5=[1439f2195b847ea0783a99cfb198cf70]
class YOLOv5\n(best.pt)--><g id="elem_YOLOv5\n(best.pt)"><rect codeLine="29" fill="#F1F1F1" height="42.2969" id="YOLOv5\n(best.pt)" rx="2.5" ry="2.5" style="stroke:#181818;stroke-width:0.5;" width="25" x="453.5" y="94.2969"/><text fill="#000000" font-family="sans-serif" font-size="14" lengthAdjust="spacing" textLength="19" x="456.5" y="112.292">pt)</text><line style="stroke:#181818;stroke-width:0.5;" x1="454.5" x2="477.5" y1="120.5938" y2="120.5938"/><line style="stroke:#181818;stroke-width:0.5;" x1="454.5" x2="477.5" y1="128.5938" y2="128.5938"/></g><!--MD5=[16855fe79eadd5fc888b152620532efd]
class ResNet18\n(behavior_classifier.pt)--><g id="elem_ResNet18\n(behavior_classifier.pt)"><rect codeLine="30" fill="#F1F1F1" height="42.2969" id="ResNet18\n(behavior_classifier.pt)" rx="2.5" ry="2.5" style="stroke:#181818;stroke-width:0.5;" width="25" x="704.5" y="94.2969"/><text fill="#000000" font-family="sans-serif" font-size="14" lengthAdjust="spacing" textLength="19" x="707.5" y="112.292">pt)</text><line style="stroke:#181818;stroke-width:0.5;" x1="705.5" x2="728.5" y1="120.5938" y2="120.5938"/><line style="stroke:#181818;stroke-width:0.5;" x1="705.5" x2="728.5" y1="128.5938" y2="128.5938"/></g><!--MD5=[c4fba4255cc26795589cac71e3b9e1c8]
class Cam--><g id="elem_Cam"><rect codeLine="8" fill="#F1F1F1" height="58.5938" id="Cam" rx="2.5" ry="2.5" style="stroke:#181818;stroke-width:0.5;" width="117" x="249.5" y="85.7969"/><text fill="#000000" font-family="sans-serif" font-size="14" lengthAdjust="spacing" textLength="78" x="269" y="103.792">Video Input</text><line style="stroke:#181818;stroke-width:0.5;" x1="250.5" x2="365.5" y1="112.0938" y2="112.0938"/><text fill="#000000" font-family="sans-serif" font-size="14" lengthAdjust="spacing" textLength="105" x="255.5" y="129.0889">[RTSP/Camera]</text><line style="stroke:#181818;stroke-width:0.5;" x1="250.5" x2="365.5" y1="136.3906" y2="136.3906"/></g><!--MD5=[2f1101c80e208b8c6cddc4332d67b76f]
class YOLOv5--><g id="elem_YOLOv5"><rect fill="#F1F1F1" height="42.2969" id="YOLOv5" rx="2.5" ry="2.5" style="stroke:#181818;stroke-width:0.5;" width="60" x="419" y="211.2969"/><text fill="#000000" font-family="sans-serif" font-size="14" lengthAdjust="spacing" textLength="54" x="422" y="229.292">YOLOv5</text><line style="stroke:#181818;stroke-width:0.5;" x1="420" x2="478" y1="237.5938" y2="237.5938"/><line style="stroke:#181818;stroke-width:0.5;" x1="420" x2="478" y1="245.5938" y2="245.5938"/></g><!--MD5=[2ebdd00b535a2d695f8e30032f077772]
class ResNet18--><g id="elem_ResNet18"><rect fill="#F1F1F1" height="42.2969" id="ResNet18" rx="2.5" ry="2.5" style="stroke:#181818;stroke-width:0.5;" width="75" x="415.5" y="440.7969"/><text fill="#000000" font-family="sans-serif" font-size="14" lengthAdjust="spacing" textLength="69" x="418.5" y="458.792">ResNet18</text><line style="stroke:#181818;stroke-width:0.5;" x1="416.5" x2="489.5" y1="467.0938" y2="467.0938"/><line style="stroke:#181818;stroke-width:0.5;" x1="416.5" x2="489.5" y1="475.0938" y2="475.0938"/></g><!--MD5=[e8d9f9f2a4882673ec3e3fc1a661565e]
link Cam to Stream--><g id="link_Cam_Stream"><path codeLine="33" d="M308,144.8169 C308,144.8169 308,206.2669 308,206.2669 " fill="none" id="Cam-to-Stream" style="stroke:#181818;stroke-width:1.0;"/><polygon fill="#181818" points="308,211.2669,312,202.2669,308,206.2669,304,202.2669,308,211.2669" style="stroke:#181818;stroke-width:1.0;"/><text fill="#000000" font-family="sans-serif" font-size="13" lengthAdjust="spacing" textLength="67" x="240" y="171.6138">Live frame</text></g><!--MD5=[de0eafe53bbc83e9fdc55d73a795e37d]
link Stream to Detection--><g id="link_Stream_Detection"><path codeLine="34" d="M315,253.3369 C315,253.3369 315,308.0669 315,308.0669 " fill="none" id="Stream-to-Detection" style="stroke:#181818;stroke-width:1.0;"/><polygon fill="#181818" points="315,313.0669,319,304.0669,315,308.0669,311,304.0669,315,313.0669" style="stroke:#181818;stroke-width:1.0;"/><text fill="#000000" font-family="sans-serif" font-size="13" lengthAdjust="spacing" textLength="69" x="245" y="276.7738">RGB frame</text></g><!--MD5=[574de2888070b9c6fa86131eb5ff5d85]
link Detection to Tracking--><g id="link_Detection_Tracking"><path codeLine="35" d="M308.75,372.5169 C308.75,372.5169 308.75,427.0369 308.75,427.0369 " fill="none" id="Detection-to-Tracking" style="stroke:#181818;stroke-width:1.0;"/><polygon fill="#181818" points="308.75,432.0369,312.75,423.0369,308.75,427.0369,304.75,423.0369,308.75,432.0369" style="stroke:#181818;stroke-width:1.0;"/><text fill="#000000" font-family="sans-serif" font-size="13" lengthAdjust="spacing" textLength="101" x="206.75" y="395.8438">Detected boxes</text></g><!--MD5=[5fc0eaf2c0439fde9a70f6e0ded84413]
link Tracking to Behavior--><g id="link_Tracking_Behavior"><path codeLine="36" d="M307,491.5169 C307,491.5169 307,546.0369 307,546.0369 " fill="none" id="Tracking-to-Behavior" style="stroke:#181818;stroke-width:1.0;"/><polygon fill="#181818" points="307,551.0369,311,542.0369,307,546.0369,303,542.0369,307,551.0369" style="stroke:#181818;stroke-width:1.0;"/><text fill="#000000" font-family="sans-serif" font-size="13" lengthAdjust="spacing" textLength="100" x="206" y="514.8438">Tracked objects</text></g><!--MD5=[1edd599f77286a386834d367d653846d]
link Behavior to Zone--><g id="link_Behavior_Zone"><path codeLine="37" d="M307,610.5169 C307,610.5169 307,665.0369 307,665.0369 " fill="none" id="Behavior-to-Zone" style="stroke:#181818;stroke-width:1.0;"/><polygon fill="#181818" points="307,670.0369,311,661.0369,307,665.0369,303,661.0369,307,670.0369" style="stroke:#181818;stroke-width:1.0;"/><text fill="#000000" font-family="sans-serif" font-size="13" lengthAdjust="spacing" textLength="93" x="213" y="633.8438">Check location</text></g><!--MD5=[8c354be2b8cf0a4dfb02a56679c3bc7d]
link Behavior to EnvAdapt--><g id="link_Behavior_EnvAdapt"><path codeLine="38" d="M230.37,581.2969 C175.12,581.2969 110.25,581.2969 110.25,581.2969 C110.25,581.2969 110.25,665.1969 110.25,665.1969 " fill="none" id="Behavior-to-EnvAdapt" style="stroke:#181818;stroke-width:1.0;"/><polygon fill="#181818" points="110.25,670.1969,114.25,661.1969,110.25,665.1969,106.25,661.1969,110.25,670.1969" style="stroke:#181818;stroke-width:1.0;"/><text fill="#000000" font-family="sans-serif" font-size="13" lengthAdjust="spacing" textLength="111" x="16.36" y="577.3638">Adjust thresholds</text></g><!--MD5=[774e698992c4435bf07e5494d2d2519e]
link Behavior to Snapshot--><g id="link_Behavior_Snapshot"><path codeLine="39" d="M383.69,575.2969 C520.17,575.2969 791,575.2969 791,575.2969 C791,575.2969 791,673.6769 791,673.6769 " fill="none" id="Behavior-to-Snapshot" style="stroke:#181818;stroke-width:1.0;"/><polygon fill="#181818" points="791,678.6769,795,669.6769,791,673.6769,787,669.6769,791,678.6769" style="stroke:#181818;stroke-width:1.0;"/><text fill="#000000" font-family="sans-serif" font-size="13" lengthAdjust="spacing" textLength="76" x="559.54" y="571.3638">On fall/crawl</text></g><!--MD5=[470626e375bd077fa8f3556d08466cd2]
link Behavior to Logger--><g id="link_Behavior_Logger"><path codeLine="40" d="M383.82,587.2969 C482.16,587.2969 640,587.2969 640,587.2969 C640,587.2969 640,673.6369 640,673.6369 " fill="none" id="Behavior-to-Logger" style="stroke:#181818;stroke-width:1.0;"/><polygon fill="#181818" points="640,678.6369,644,669.6369,640,673.6369,636,669.6369,640,678.6369" style="stroke:#181818;stroke-width:1.0;"/><text fill="#000000" font-family="sans-serif" font-size="13" lengthAdjust="spacing" textLength="81" x="473.08" y="583.3638">All behaviors</text></g><!--MD5=[aef5c7617569401fa3ca8acf3e4e487d]
link Behavior to Notifier--><g id="link_Behavior_Notifier"><path codeLine="41" d="M383.81,599.2969 C424.13,599.2969 465.25,599.2969 465.25,599.2969 C465.25,599.2969 465.25,665.1869 465.25,665.1869 " fill="none" id="Behavior-to-Notifier" style="stroke:#181818;stroke-width:1.0;"/><polygon fill="#181818" points="465.25,670.1869,469.25,661.1869,465.25,665.1869,461.25,661.1869,465.25,670.1869" style="stroke:#181818;stroke-width:1.0;"/><text fill="#000000" font-family="sans-serif" font-size="13" lengthAdjust="spacing" textLength="103" x="458.47" y="612.3638">On critical event</text></g><!--MD5=[1e20a2d5ce439bb2ed93faa3bb6eaf74]
link config.yaml to Detection--><g id="link_config.yaml_Detection"><path codeLine="43" d="M529,253.3769 C529,288.0369 529,353.2969 529,353.2969 C529,353.2969 381.61,353.2969 381.61,353.2969 " fill="none" id="config.yaml-to-Detection" style="stroke:#181818;stroke-width:1.0;"/><polygon fill="#181818" points="376.61,353.2969,385.61,357.2969,381.61,353.2969,385.61,349.2969,376.61,353.2969" style="stroke:#181818;stroke-width:1.0;"/></g><!--MD5=[93602789efc8c3e53c8688fd92b95866]
link config.yaml to Behavior--><g id="link_config.yaml_Behavior"><path codeLine="44" d="M537.5,253.5069 C537.5,326.5569 537.5,563.2969 537.5,563.2969 C537.5,563.2969 388.75,563.2969 388.75,563.2969 " fill="none" id="config.yaml-to-Behavior" style="stroke:#181818;stroke-width:1.0;"/><polygon fill="#181818" points="383.75,563.2969,392.75,567.2969,388.75,563.2969,392.75,559.2969,383.75,563.2969" style="stroke:#181818;stroke-width:1.0;"/></g><!--MD5=[a17fc28f064c704e133396330db98fab]
link YOLOv5 to Detection--><g id="link_YOLOv5_Detection"><path codeLine="45" d="M449,253.7169 C449,283.3669 449,333.2969 449,333.2969 C449,333.2969 381.51,333.2969 381.51,333.2969 " fill="none" id="YOLOv5-to-Detection" style="stroke:#181818;stroke-width:1.0;"/><polygon fill="#181818" points="376.51,333.2969,385.51,337.2969,381.51,333.2969,385.51,329.2969,376.51,333.2969" style="stroke:#181818;stroke-width:1.0;"/></g><!--MD5=[bbedeafe220179b2fa2ea6dc9939e633]
link ResNet18 to Behavior--><g id="link_ResNet18_Behavior"><path codeLine="46" d="M415.22,462.2969 C397.4,462.2969 380,462.2969 380,462.2969 C380,462.2969 380,546.1969 380,546.1969 " fill="none" id="ResNet18-to-Behavior" style="stroke:#181818;stroke-width:1.0;"/><polygon fill="#181818" points="380,551.1969,384,542.1969,380,546.1969,376,542.1969,380,551.1969" style="stroke:#181818;stroke-width:1.0;"/></g><!--MD5=[5422303a2b63eb23e7a236c268f26724]
@startuml
!define RECTANGLE class
skinparam style strictuml
skinparam linetype ortho
skinparam shadowing false

title Home Elderly Activity and Safety Monitoring System Architecture

RECTANGLE "Video Input" as Cam {
  [RTSP/Camera]
}

package "Processing Modules" {
  RECTANGLE "Video Stream Reader" as Stream
  RECTANGLE "Object Detection\n(YOLOv5)" as Detection
  RECTANGLE "Object Tracking\n(Deep SORT)" as Tracking
  RECTANGLE "Behavior Recognition\n(ResNet18 + Rules)" as Behavior
  RECTANGLE "Environmental Adapter\n(Background Modeling)" as EnvAdapt
  RECTANGLE "Danger Zone Checker\n(Polygon Logic)" as Zone
}

package "Alert & Logging" {
  RECTANGLE "Snapshot Saver" as Snapshot
  RECTANGLE "Behavior Logger" as Logger
  RECTANGLE "Notifier\n(Twilio / SMTP)" as Notifier
}

package "Configuration & Models" {
  RECTANGLE "config.yaml"
  RECTANGLE "YOLOv5\n(best.pt)"
  RECTANGLE "ResNet18\n(behavior_classifier.pt)"
}

Cam - -> Stream : Live frame
Stream - -> Detection : RGB frame
Detection - -> Tracking : Detected boxes
Tracking - -> Behavior : Tracked objects
Behavior - -> Zone : Check location
Behavior - -> EnvAdapt : Adjust thresholds
Behavior - -> Snapshot : On fall/crawl
Behavior - -> Logger : All behaviors
Behavior - -> Notifier : On critical event

config.yaml - -> Detection
config.yaml - -> Behavior
YOLOv5 - -> Detection
ResNet18 - -> Behavior
@enduml

@startuml
skinparam style strictuml
skinparam linetype ortho
skinparam shadowing false

title Home Elderly Activity and Safety Monitoring System Architecture

class "Video Input" as Cam {
  [RTSP/Camera]
}

package "Processing Modules" {
  class "Video Stream Reader" as Stream
  class "Object Detection\n(YOLOv5)" as Detection
  class "Object Tracking\n(Deep SORT)" as Tracking
  class "Behavior Recognition\n(ResNet18 + Rules)" as Behavior
  class "Environmental Adapter\n(Background Modeling)" as EnvAdapt
  class "Danger Zone Checker\n(Polygon Logic)" as Zone
}

package "Alert & Logging" {
  class "Snapshot Saver" as Snapshot
  class "Behavior Logger" as Logger
  class "Notifier\n(Twilio / SMTP)" as Notifier
}

package "Configuration & Models" {
  class "config.yaml"
  class "YOLOv5\n(best.pt)"
  class "ResNet18\n(behavior_classifier.pt)"
}

Cam - -> Stream : Live frame
Stream - -> Detection : RGB frame
Detection - -> Tracking : Detected boxes
Tracking - -> Behavior : Tracked objects
Behavior - -> Zone : Check location
Behavior - -> EnvAdapt : Adjust thresholds
Behavior - -> Snapshot : On fall/crawl
Behavior - -> Logger : All behaviors
Behavior - -> Notifier : On critical event

config.yaml - -> Detection
config.yaml - -> Behavior
YOLOv5 - -> Detection
ResNet18 - -> Behavior
@enduml

PlantUML version 1.2022.7(Mon Aug 22 17:01:30 UTC 2022)
(GPL source distribution)
Java Runtime: OpenJDK Runtime Environment
JVM: OpenJDK 64-Bit Server VM
Default Encoding: UTF-8
Language: en
Country: null
--></g></svg>